<?xml version="1.0" encoding="utf-8"?>
<!-- Generator: Adobe Illustrator 23.0.6, SVG Export Plug-In . SVG Version: 6.00 Build 0)  -->
<svg version="1.1" id="图层_1" xmlns="http://www.w3.org/2000/svg" xmlns:xlink="http://www.w3.org/1999/xlink" x="0px" y="0px" viewBox="0 0 2592 1024" style="enable-background:new 0 0 2592 1024;" xml:space="preserve" width="146px" height="38px">
<!-- <svg width="146px" height="38px" viewBox="0 0 146 38" version="1.1" xmlns="http://www.w3.org/2000/svg" xmlns:xlink="http://www.w3.org/1999/xlink"> -->
<style type="text/css">
	.st0{fill-rule:evenodd;clip-rule:evenodd;fill:#35203F;}
	.st1{fill-rule:evenodd;clip-rule:evenodd;fill:#BC2422;}
</style>
<g>
	<g>
		<path id="Fill-1" class="st0" d="M1474.3,846h-45.9v116.6c-5.8,3.1-67.3,21.4-106.3-17.5c-8.6-8.6-14.7-19.9-19.3-33.1
			c-4.6-13.2-6.9-28.4-6.9-45.7c0-15.7,2.3-30.1,6.8-43.1c4.5-13,11-24.1,19.4-33.4c8.4-9.3,18.5-16.4,30.4-21.5
			c11.8-5.1,32.5-7.6,47.1-7.6c13.7,0,39,4.5,60.9,13.3c5.7,2.3,17.9,9.2,24.1,12.7c1.7,0.9,3.7-0.3,3.7-2.2v-51
			c-2.1-1.7-40.2-23.1-97.9-23.1c-23.8,0-45.5,3.7-64.9,11c-19.4,7.3-36,17.9-49.7,31.7c-13.7,13.8-24.3,30.5-31.8,50.3
			c-7.5,19.7-11.2,42-11.2,66.7c0,24,3.5,45.5,10.5,64.4c7,18.9,17.1,35,30.4,48.2c13.2,13.2,29.4,23.2,48.5,30.2
			c19.1,6.9,40.7,10.4,64.9,10.4c59.2,0,101.9-27.6,103.5-31.1c1.6-3.5,0-132.6,0-132.6C1490.7,848.1,1476.8,846,1474.3,846"/>
		<path id="Fill-3" class="st0" d="M2110.4,725.8v205.5c0,7.6-0.6,13.9-1.6,18.7s-2.7,8.7-4.8,11.6c-2.1,2.9-4.8,4.9-7.9,6.1
			c-3.2,1.2-6.9,1.7-11.1,1.7h-25.2v53.3c2.3,0.9,29.6,0,34.3,0c61.4,0,71.6-40.8,74.2-51.8c2.6-11,3.9-23.3,3.9-37V725.8H2110.4z"
			/>
		<polygon id="Fill-5" class="st0" points="2219.8,1011.9 2282.6,1011.9 2282.6,801 2219.8,801 		"/>
		<polygon id="Fill-7" class="st1" points="2219.8,779.8 2282.6,779.8 2282.6,725 2219.8,725 		"/>
		<path id="Fill-8" class="st0" d="M1770.5,782.3h-60.8v123.8c0,10.6-1.4,20.1-4.3,28.4c-2.9,8.4-7,15.4-12.3,21
			c-5.3,5.7-11.8,10-19.4,13s-16.3,4.4-25.9,4.4c-9.5,0-18.1-1.4-25.8-4.3c-7.7-2.9-14.3-7.2-19.9-13c-5.5-5.8-9.8-13-12.7-21.9
			c-3-8.8-4.5-19.2-4.5-31.2V782.3h-61.5V908c0,19.3,2.8,36.2,8.3,50.6c5.5,14.4,13.5,26.5,24,36.1c10.4,9.7,23.2,16.9,38.3,21.6
			c15.1,4.7,32.2,7.1,51.2,7.1c20.2,0,38.2-2.6,53.8-7.9c5.4-1.8,10.3-4,15.1-6.4v14.4h56.4v-118v0V782.3z"/>
		<path id="Fill-9" class="st0" d="M1988.9,908.6c0,31.2-25.3,56.4-56.5,56.4h-12.7c-31.2,0-56.4-25.3-56.4-56.4v-24.4
			c0-31.2,25.3-56.4,56.4-56.4h12.7c31.2,0,56.5,25.3,56.5,56.4V908.6z M1943,772.9h-33.9c-59.8,0-108.7,48.9-108.7,108.7v29.6
			c0,59.8,48.9,108.7,108.7,108.7h33.9c59.8,0,108.7-48.9,108.7-108.7v-29.6C2051.6,821.8,2002.7,772.9,1943,772.9L1943,772.9z"/>
		<path id="Fill-10" class="st0" d="M2567.9,833c-5.5-14.4-13.5-26.5-24-36.1c-10.4-9.7-23.2-16.9-38.3-21.6
			c-15.1-4.7-32.2-7.1-51.2-7.1c-20.3,0-38.2,2.6-53.8,7.9c-5.4,1.8-10.3,4-15.1,6.4v-14.4h-56.4v118.1v79.5v43.6h60.8V885.5
			c0-10.6,1.5-20.1,4.3-28.4c2.9-8.3,7-15.3,12.3-21c5.3-5.7,11.8-10,19.4-13s16.3-4.4,25.9-4.4c9.5,0,18.1,1.4,25.8,4.3
			c7.7,2.9,14.3,7.2,19.9,13c5.5,5.8,9.8,13.1,12.7,21.9s4.4,19.2,4.4,31.2v120.3h61.5V883.6C2576.2,864.3,2573.5,847.4,2567.9,833"
			/>
		<path id="Fill-11" class="st0" d="M1711,421L1711,421v65.1h-361.7V421h142v-89.6h-142v-63.7h142v-74.2h-142v-65.8H1711v65.8
			h-141.3v74.2H1711v63.7h-141.3V421h67.2H1711z M1310.8,536.4h438.6V113c0-20.5-16.6-37-37-37h-364.6c-20.5,0-37,16.6-37,37V536.4z
			 M1827.1,58.7v549.8h-593.9V58.7c0-30.7,24.9-55.6,55.6-55.6h482.8C1802.3,3.2,1827.1,28,1827.1,58.7L1827.1,58.7z"/>
		<path id="Fill-12" class="st0" d="M2474.8,536.5h-0.9c9.8-34.1,24.2-68.5,43.3-106.5h-81.8c-17.8,34.2-31.6,68.6-41.3,106.5h-3.2
			h-69.2V394h237.1v-70.5h-237.1v-90.8h134.1v-73.3c-11.6,0.1-351.2,0-351.2,0v73.3h133.1v90.8h-232.2V394h232.2v142.5h-63.1h-6.7
			c-9.8-37.8-23.5-72.3-41.3-106.5h-81.8c19.1,38,33.6,72.4,43.3,106.5h-102.4v72h590.5v-72H2474.8z"/>
		<path id="Fill-13" class="st0" d="M1970.6,258.2l118.9-217.8c12-22,34.7-35.6,59.3-35.6h264.6c24.6,0,47.3,13.6,59.3,35.6
			L2591.7,258h-93.1l-88.4-159.7c-8.1-14.5-23.1-23.5-39.4-23.5h-180.5c-16.4,0-31.5,9.1-39.5,23.7l-86.9,159.7H1970.6z"/>
		<path id="Fill-14" class="st0" d="M1683.5,410.2h-66.3v-36.6c0-15.8,12.8-28.7,28.7-28.7h9c15.8,0,28.7,12.8,28.7,28.7V410.2z"/>
		<polygon id="Fill-15" class="st1" points="1016.7,0 0.1,0 0.1,509.9 349.7,509.9 255.3,238.2 1016.7,238.4 		"/>
		<polygon id="Fill-16" class="st0" points="0.1,1023.8 1016.8,1023.8 1016.8,513.5 667.1,513.5 761.6,785.2 0.1,785.5 		"/>
	</g>
</g>
</svg>
